<svg xmlns="http://www.w3.org/2000/svg" width="54" height="62" fill="none" viewBox="0 0 54 62">
    <path fill="#fff" d="M27.712 21.824l10.912-10.912L27.712 0l-4.114 4.128 6.783 6.784-6.783 6.783 4.114 4.129z"/>
    <path fill="#fff" d="M27.128 60.993A26.535 26.535 0 0 0 53.635 34.5H47.8a20.671 20.671 0 1 1-20.672-20.672h5.836V7.994h-5.836a26.506 26.506 0 1 0 0 52.999z"/>
    <path fill="#fff" d="M19.407 34.922v-2.404l2.968-1.727h2.033v10.552H22.07v-8.019l-2.662 1.598zm6.532 1.097c0-1.678.323-3.006.968-3.985.646-.98 1.603-1.468 2.872-1.468 1.27 0 2.227.489 2.872 1.468.656.979.984 2.307.984 3.985 0 1.656-.328 2.98-.984 3.969-.645.99-1.603 1.484-2.872 1.484-1.27 0-2.226-.49-2.872-1.468-.645-.99-.968-2.318-.968-3.985zm3.84-3.356c-.957 0-1.436 1.119-1.436 3.356s.479 3.356 1.436 3.356c.968 0 1.452-1.119 1.452-3.356s-.484-3.356-1.452-3.356z"/>
</svg>
